<svg xmlns="http://www.w3.org/2000/svg" width="128" height="128" viewBox="0 0 128 128">
  <title>FUEL</title>
  <circle cx="64" cy="64" r="51.2" fill="#fdbe00"/>
  <path d="M70.055,70.887A6.055,6.055,0,1,0,64,76.942,6.055,6.055,0,0,0,70.055,70.887Z" fill="#e5384f"/>
  <path d="M64,57.85A13.036,13.036,0,0,1,77.04,70.89h27.95V64a40.99,40.99,0,0,0-81.98,0v6.89H50.96A13.036,13.036,0,0,1,64,57.85Z" fill="#cce5fd"/>
  <path d="M72.1,46.25,64,57.85a12.922,12.922,0,0,1,8.09,2.82h.01Z" fill="#e5384f"/>
  <g>
    <path d="M65.75,38V33.333a1.75,1.75,0,0,0-3.5,0V38a1.75,1.75,0,0,0,3.5,0Z" fill="#9cbfe6"/>
    <path d="M45.615,47.365a1.75,1.75,0,0,0,1.237-2.987l-3.3-3.3a1.75,1.75,0,0,0-2.475,2.475l3.3,3.3A1.746,1.746,0,0,0,45.615,47.365Z" fill="#9cbfe6"/>
    <path d="M83.622,46.853l3.3-3.3a1.75,1.75,0,0,0-2.475-2.475l-3.3,3.3a1.75,1.75,0,0,0,2.475,2.475Z" fill="#9cbfe6"/>
    <path d="M73.326,41.481a1.752,1.752,0,0,0,1.634-1.122L76.634,36a1.751,1.751,0,1,0-3.268-1.256L71.692,39.1a1.751,1.751,0,0,0,1.634,2.378Z" fill="#9cbfe6"/>
    <path d="M39.1,56.308a1.75,1.75,0,0,0,1.255-3.268L36,51.366a1.75,1.75,0,1,0-1.254,3.268Z" fill="#9cbfe6"/>
    <path d="M53.434,41.994a1.75,1.75,0,0,0,1.6-2.461l-1.9-4.263a1.75,1.75,0,0,0-3.2,1.421l1.9,4.264A1.749,1.749,0,0,0,53.434,41.994Z" fill="#9cbfe6"/>
    <path d="M87.757,55.184a1.726,1.726,0,0,0,.71-.152l4.263-1.9a1.749,1.749,0,1,0-1.421-3.2l-4.264,1.9a1.75,1.75,0,0,0,.712,3.349Z" fill="#9cbfe6"/>
  </g>
  <g>
    <path d="M48.617,88.386a1.148,1.148,0,1,0,0-2.3H41.49a1.031,1.031,0,0,0-1.031,1.03V98.515a1.148,1.148,0,0,0,1.148,1.148h.445A1.148,1.148,0,0,0,43.2,98.515V93.9h4.519a1.148,1.148,0,1,0,0-2.3H43.2V88.386Z" fill="#e5384f"/>
    <path d="M54.324,86.09h0a1.37,1.37,0,0,0-1.37,1.37v5.87a16.487,16.487,0,0,0,.268,3.444,3.743,3.743,0,0,0,.769,1.5,4.2,4.2,0,0,0,1.588,1.166,7.5,7.5,0,0,0,2.949.45,6.963,6.963,0,0,0,2.611-.412,4.147,4.147,0,0,0,1.6-1.107,3.819,3.819,0,0,0,.819-1.7,18.253,18.253,0,0,0,.222-3.454V87.46a1.37,1.37,0,0,0-2.74,0V93.6a15.14,15.14,0,0,1-.121,2.3,1.879,1.879,0,0,1-.712,1.171,2.757,2.757,0,0,1-1.76.477,2.923,2.923,0,0,1-1.81-.5A2.206,2.206,0,0,1,55.8,95.71a15.236,15.236,0,0,1-.1-2.269V87.46A1.37,1.37,0,0,0,54.324,86.09Z" fill="#e5384f"/>
    <path d="M76.535,88.386a1.144,1.144,0,0,0,1.144-1.144v-.008a1.144,1.144,0,0,0-1.144-1.144H68.644a1.03,1.03,0,0,0-1.03,1.03V98.633a1.03,1.03,0,0,0,1.03,1.03h8.15a1.144,1.144,0,0,0,0-2.287h-6.44V93.682h5.671a1.144,1.144,0,1,0,0-2.287H70.354V88.386Z" fill="#e5384f"/>
    <path d="M82.654,86.2a1.371,1.371,0,0,0-1.37,1.37V98.633a1.03,1.03,0,0,0,1.03,1.03H89.7a1.144,1.144,0,1,0,0-2.287H84.024V87.57A1.37,1.37,0,0,0,82.654,86.2Z" fill="#e5384f"/>
  </g>
  <path d="M88.25,64A1.749,1.749,0,0,0,90,65.75h4.667A1.749,1.749,0,0,0,96.417,64a32.417,32.417,0,0,0-64.834,0,1.75,1.75,0,0,0,1.75,1.75H38a1.75,1.75,0,0,0,0-3.5H35.136a28.917,28.917,0,0,1,57.728,0H90A1.749,1.749,0,0,0,88.25,64Z" fill="#9cbfe6"/>
</svg>
