<svg xmlns="http://www.w3.org/2000/svg" width="128" height="128" viewBox="0 0 128 128">
  <title>OIL TANK</title>
  <rect x="52.83" y="13.55" width="22.339" height="11.446" fill="#e53935"/>
  <path d="M25.081,64.57h9.656V57.89H23.743a6.783,6.783,0,0,0-6.783,6.783v45.136h6.69V66A1.431,1.431,0,0,1,25.081,64.57Z" fill="#e53935"/>
  <path d="M111.038,109.809V64.673a6.782,6.782,0,0,0-6.782-6.783H93.262v6.68h9.655A1.431,1.431,0,0,1,104.348,66v43.808Z" fill="#e53935"/>
  <rect x="87.435" y="52.726" width="9.653" height="17.008" fill="#e53935"/>
  <rect x="30.911" y="52.726" width="9.653" height="17.008" fill="#e53935"/>
  <rect x="12.8" y="105.168" width="102.4" height="9.281" fill="#e53935"/>
  <rect x="38.564" y="21.752" width="50.871" height="83.417" rx="9.7" fill="#e53935"/>
  <rect x="38.564" y="37.836" width="50.871" height="6.63" fill="#e53935"/>
  <rect x="38.564" y="57.915" width="50.871" height="6.63" fill="#e53935"/>
</svg>
