<svg height="50%" viewBox="0 0 192 192" width="50%" xmlns="http://www.w3.org/2000/svg"><path d="m72 16h-8v-12a4 4 0 0 0 -4-4h-32a4 4 0 0 0 -4 4v12h-8v16h56z" fill="white"/><path d="m152 0h-11.931a32.135 32.135 0 0 0 -30.769 23.209l-7.772 27.2a4 4 0 0 1 -4.4 2.862l-29.681-4.139a4 4 0 0 1 -3.447-3.961v-5.171h-40v132a20 20 0 0 0 20 20h120a20 20 0 0 0 20-20v-140a32 32 0 0 0 -32-32zm-10.343 154.343-11.314 11.314-21.657-21.657h-9.372l-21.657 21.657-11.314-11.314 21.657-21.657v-9.372l-21.657-21.657 11.314-11.314 21.657 21.657h9.372l21.657-21.657 11.314 11.314-21.657 21.657v9.372zm13.77-89.571-23.309-3.372a4 4 0 0 1 -3.331-4.831l6.583-29.442a4 4 0 0 1 3.9-3.127h16.73a4 4 0 0 1 4 4v32.813a4 4 0 0 1 -4.573 3.959z" fill="white"/></svg>