<svg xmlns="http://www.w3.org/2000/svg" width="128" height="128" viewBox="0 0 128 128" class="svgpist">
  <title>FUEL PUMP</title>
  <path d="M24.534,66.461a7,7,0,0,0,6.931-7.069h0a2.674,2.674,0,0,0-.034-.52,7.137,7.137,0,0,0-.347-1.7c-1.386-4.991-6.55-11.506-6.55-11.506s-5.164,6.515-6.585,11.506a7.186,7.186,0,0,0-.347,1.7c0,.173-.034.347-.034.52a7,7,0,0,0,6.931,7.07Z" fill="white"/>
  <path d="M47.833,38.333l7,5.5,8.257-8.586L53.5,28.211,26.891,20a2.548,2.548,0,0,0-3.119,1.684l-1.957,6.179a2.551,2.551,0,0,0,1.7,3.212Z" fill="white"/>
  <path d="M76.5,33.67,72.17,41l-9.08-5.75-8.26,8.58,20.99,56.46a6.132,6.132,0,0,0,9.11,2.99l18.24-11.95,3.33,4.84,9.83-7.34L92,53.83l4.33-8.16ZM92.48,89.46l-8.3,5.14a1.937,1.937,0,0,1-2.84-.98L72.91,70.79a7.24,7.24,0,0,1-.45-2.49,7.36,7.36,0,0,1,.17-1.55l8.87,5.5Z" fill="white"/>
  <path d="M99.9,84.86,85.63,64.19a7.223,7.223,0,0,0-13,2.56l8.87,5.5L92.48,89.46Z" fill="white"/>
</svg>


