<svg xmlns="http://www.w3.org/2000/svg" width="128" height="128" viewBox="0 0 128 128" class="icon">
  <title>GAS STATION</title>
  <path d="M91.746,67.917H90.12a1.75,1.75,0,0,0,0,3.5h1.626a4.341,4.341,0,0,1,4.337,4.337V94.746a7.838,7.838,0,0,0,15.675,0V51.051a1.75,1.75,0,0,0-3.5,0V94.746a4.338,4.338,0,0,1-8.675,0V75.754A7.846,7.846,0,0,0,91.746,67.917Z" fill="white"/>
  <polygon points="112.833 45.859 112.833 31.368 107.844 22.917 102.795 25.923 107.093 33.212 107.093 45.859 112.833 45.859" fill="white"/>
  <rect x="78.047" y="64" width="12.073" height="15.824" fill="white"/>
  <rect x="23.311" y="12.8" width="59.285" height="97.938" fill="white"/>
  <rect x="33.963" y="23.667" width="37.982" height="27.385" fill="white"/>
  <rect x="33.963" y="59.538" width="37.982" height="15.824" fill="white"/>
  <rect x="12.8" y="106.276" width="80.308" height="8.924" fill="white"/>
  <rect x="104.815" y="40.667" width="10.385" height="10.385" fill="white"/>
</svg>

