<svg version="1.0" xmlns="http://www.w3.org/2000/svg" width="1280.000000pt" height="1280.000000pt" viewBox="0 0 1280.000000 1280.000000" preserveAspectRatio="xMidYMid meet">
	<metadata>
		Created by potrace 1.15, written by Peter Selinger 2001-2017
	</metadata>
	<g transform="translate(0.000000,1280.000000) scale(0.100000,-0.100000)" fill="#000000" stroke="none">
		<path d="M2020 10115 c-260 -53 -461 -227 -548 -472 -15 -44 -17 -144 -19
-1094 l-4 -1046 -192 -52 c-252 -69 -350 -118 -466 -233 -91 -89 -161 -214
-192 -340 -7 -28 -9 -91 -6 -155 4 -105 21 -171 625 -2399 341 -1260 630
-2311 642 -2335 40 -80 110 -168 171 -218 151 -122 374 -182 564 -152 39 6
504 128 1035 271 531 144 1047 284 1148 311 100 27 264 71 365 98 232 63 501
136 740 200 103 28 270 74 372 101 102 28 268 73 370 100 102 28 267 72 368
99 232 63 501 136 740 200 238 65 507 138 740 200 297 81 500 136 1592 430
572 155 1072 293 1112 307 221 79 401 272 457 490 21 82 21 232 -1 309 -16 55
-18 245 -23 2460 l-5 2400 -22 58 c-88 230 -254 382 -498 454 -57 17 -274 18
-4530 20 -3687 1 -4481 -1 -4535 -12z" fill="#0D4848" />
	</g>
</svg>
